<svg width="18" height="18" viewBox="0 0 18 18" fill="none" xmlns="http://www.w3.org/2000/svg">
<path d="M4.39575 4.39575L3.58325 1.14575H1.14575M4.39575 4.39575H16.8541L15.0804 11.9337C14.8501 12.9124 13.9769 13.6041 12.9714 13.6041H8.50104C7.51792 13.6041 6.65804 12.9422 6.40648 11.9919L4.39575 4.39575Z" stroke="#8D8D8D" stroke-width="1.5" stroke-linecap="round" stroke-linejoin="round"/>
<path d="M6.83333 17.6667C7.43164 17.6667 7.91667 17.1816 7.91667 16.5833C7.91667 15.985 7.43164 15.5 6.83333 15.5C6.23503 15.5 5.75 15.985 5.75 16.5833C5.75 17.1816 6.23503 17.6667 6.83333 17.6667Z" fill="#8D8D8D"/>
<path d="M14.4166 17.6667C15.0149 17.6667 15.4999 17.1816 15.4999 16.5833C15.4999 15.985 15.0149 15.5 14.4166 15.5C13.8183 15.5 13.3333 15.985 13.3333 16.5833C13.3333 17.1816 13.8183 17.6667 14.4166 17.6667Z" fill="#8D8D8D"/>
</svg>
