<svg width="14" height="14" viewBox="0 0 14 14" fill="none" xmlns="http://www.w3.org/2000/svg">
<path fill-rule="evenodd" clip-rule="evenodd" d="M1.01047 12.9896C0.346557 12.3257 0.34658 11.2493 1.01047 10.5854L4.61671 6.97918L1.01047 3.37294C0.346557 2.70903 0.346581 1.63266 1.01047 0.968777C1.67438 0.304868 2.75072 0.304867 3.41463 0.968777L7.02087 4.57502L10.6271 0.968777C11.291 0.304867 12.3674 0.304868 13.0313 0.968777C13.6952 1.63268 13.6952 2.70903 13.0313 3.37294L9.42504 6.97918L13.0313 10.5854C13.6952 11.2493 13.6952 12.3257 13.0313 12.9896C12.3674 13.6535 11.291 13.6535 10.6271 12.9896L7.02087 9.38335L3.41463 12.9896C2.75074 13.6535 1.67436 13.6535 1.01047 12.9896Z" fill="#F2F2F2"/>
</svg>
