<svg width="15" height="15" viewBox="0 0 15 15" fill="none" xmlns="http://www.w3.org/2000/svg">
<path fill-rule="evenodd" clip-rule="evenodd" d="M13.5104 1.48966C14.1743 2.15357 14.1743 3.22993 13.5104 3.89382L9.90416 7.50006L13.5104 11.1063C14.1743 11.7702 14.1743 12.8466 13.5104 13.5105C12.8465 14.1744 11.7702 14.1744 11.1062 13.5105L7.5 9.90423L3.89376 13.5105C3.22985 14.1744 2.1535 14.1744 1.48959 13.5105C0.825694 12.8466 0.825682 11.7702 1.48959 11.1063L5.09584 7.50006L1.48959 3.89382C0.825706 3.22993 0.825682 2.15357 1.48959 1.48966C2.15349 0.825759 3.22987 0.825771 3.89376 1.48966L7.5 5.0959L11.1062 1.48966C11.7701 0.825771 12.8465 0.825759 13.5104 1.48966Z" fill="red"/>
</svg>
