<svg width="22" height="21" viewBox="0 0 22 21" fill="none" xmlns="http://www.w3.org/2000/svg">
<path d="M15.3334 1.25V5.36992C16.6742 6.14572 17.6949 7.37348 18.2129 8.83333H19.6657C19.953 8.83333 20.2285 8.94747 20.4317 9.15063C20.6349 9.3538 20.749 9.62935 20.749 9.91667V12.0833C20.749 12.3706 20.6349 12.6462 20.4317 12.8494C20.2285 13.0525 19.953 13.1667 19.6657 13.1667H18.2118C17.8474 14.1963 17.2297 15.1176 16.4157 15.8457V18.0417C16.4157 18.4726 16.2445 18.886 15.9397 19.1907C15.635 19.4955 15.2216 19.6667 14.7907 19.6667C14.3597 19.6667 13.9464 19.4955 13.6416 19.1907C13.3369 18.886 13.1657 18.4726 13.1657 18.0417V17.4101C12.8077 17.47 12.4453 17.5001 12.0823 17.5H7.74899C7.38601 17.5001 7.02365 17.47 6.66566 17.4101V18.0417C6.66566 18.4726 6.49445 18.886 6.1897 19.1907C5.88496 19.4955 5.47163 19.6667 5.04066 19.6667C4.60968 19.6667 4.19635 19.4955 3.89161 19.1907C3.58686 18.886 3.41566 18.4726 3.41566 18.0417V15.875L3.41674 15.8457C2.43527 14.9683 1.74338 13.8134 1.43266 12.5341C1.12193 11.2548 1.20702 9.91125 1.67665 8.68133C2.14628 7.45141 2.97832 6.39309 4.06264 5.64644C5.14697 4.89979 6.43246 4.50001 7.74899 4.5H10.4573L15.3323 1.25H15.3334Z" stroke="#8D8D8D" stroke-width="1.5" stroke-linecap="round" stroke-linejoin="round"/>
</svg>
