<?xml version="1.0" encoding="UTF-8"?><svg id="Calque_2" xmlns="http://www.w3.org/2000/svg" viewBox="0 0 841.89 841.89"><defs><style>.cls-1,.cls-2{fill:#fff;}.cls-2{fill-rule:evenodd;}</style></defs><g id="Calque_1-2"><path class="cls-1" d="M420.95,53c49.7,0,97.88,9.72,143.2,28.89,43.81,18.53,83.16,45.07,116.97,78.88,33.81,33.81,60.35,73.16,78.88,116.97,19.17,45.33,28.89,93.51,28.89,143.2s-9.72,97.88-28.89,143.2c-18.53,43.81-45.07,83.16-78.88,116.97s-73.16,60.35-116.97,78.88c-45.33,19.17-93.51,28.89-143.2,28.89s-97.88-9.72-143.2-28.89c-43.81-18.53-83.16-45.07-116.97-78.88-33.81-33.81-60.35-73.16-78.88-116.97-19.17-45.33-28.89-93.51-28.89-143.2s9.72-97.88,28.89-143.2c18.53-43.81,45.07-83.16,78.88-116.97,33.81-33.81,73.16-60.35,116.97-78.88,45.33-19.17,93.51-28.89,143.2-28.89m0-53C188.46,0,0,188.46,0,420.94s188.46,420.94,420.95,420.94,420.94-188.46,420.94-420.94S653.43,0,420.95,0h0Z"/><path class="cls-2" d="M622.49,219.4c22.26,22.26,22.26,58.36,0,80.62l-120.93,120.93,120.93,120.93c22.26,22.26,22.26,58.36,0,80.62-22.26,22.26-58.35,22.26-80.62,0l-120.92-120.93-120.93,120.93c-22.26,22.26-58.36,22.26-80.62,0-22.26-22.26-22.26-58.36,0-80.62l120.93-120.93-120.93-120.93c-22.26-22.26-22.26-58.35,0-80.62,22.26-22.26,58.36-22.26,80.62,0l120.93,120.93,120.92-120.93c22.26-22.26,58.36-22.26,80.62,0Z"/></g></svg>