<svg width="21" height="20" viewBox="0 0 21 20" fill="none" xmlns="http://www.w3.org/2000/svg">
<g clip-path="url(#clip0_810_5006)">
<path d="M7.049 13.158H13.669V17.908C13.669 18.3721 13.4846 18.8172 13.1564 19.1454C12.8282 19.4736 12.3831 19.658 11.919 19.658H2C1.53587 19.658 1.09075 19.4736 0.762563 19.1454C0.434374 18.8172 0.25 18.3721 0.25 17.908V2C0.25 1.53587 0.434375 1.09075 0.762563 0.762563C1.09075 0.434375 1.53587 0.25 2 0.25H11.919C12.3831 0.25 12.8282 0.434375 13.1564 0.762563C13.4846 1.09075 13.669 1.53587 13.669 2V6.658H10.484H7.049H6.799V6.908V12.908V13.158H7.049Z" stroke="white" stroke-width="0.5"/>
</g>
<path d="M18.7909 10.3534L16.648 12.4963C16.5133 12.6264 16.3328 12.6984 16.1455 12.6968C15.9583 12.6952 15.7791 12.62 15.6467 12.4876C15.5142 12.3552 15.4391 12.176 15.4375 11.9887C15.4358 11.8014 15.5078 11.621 15.638 11.4863L16.5615 10.5627H9.7143C9.52485 10.5627 9.34317 10.4874 9.20921 10.3535C9.07526 10.2195 9 10.0379 9 9.84841C9 9.65897 9.07526 9.47728 9.20921 9.34333C9.34317 9.20937 9.52485 9.13411 9.7143 9.13411H16.5615L15.638 8.21053C15.5078 8.07581 15.4358 7.89538 15.4375 7.70809C15.4391 7.5208 15.5142 7.34165 15.6467 7.20921C15.7791 7.07678 15.9583 7.00165 16.1455 7.00003C16.3328 6.9984 16.5133 7.0704 16.648 7.20051L18.7909 9.3434C18.9248 9.47735 19 9.659 19 9.84841C19 10.0378 18.9248 10.2195 18.7909 10.3534Z" fill="white"/>
<defs>
<clipPath id="clip0_810_5006">
<rect width="21" height="19.908" fill="white"/>
</clipPath>
</defs>
</svg>
