<svg width="30" height="17" viewBox="0 0 30 17" fill="none" xmlns="http://www.w3.org/2000/svg">
<path d="M28.5721 9.78607L22.3186 16.0395C21.9255 16.4192 21.3989 16.6293 20.8524 16.6246C20.3058 16.6199 19.783 16.4006 19.3965 16.0141C19.0101 15.6277 18.7908 15.1048 18.7861 14.5583C18.7813 14.0118 18.9914 13.4852 19.3712 13.0921L22.0664 10.3968H2.08449C1.53165 10.3968 1.00145 10.1772 0.610533 9.78629C0.219616 9.39538 0 8.86518 0 8.31234C0 7.7595 0.219616 7.2293 0.610533 6.83838C1.00145 6.44747 1.53165 6.22785 2.08449 6.22785H22.0664L19.3712 3.53261C18.9914 3.13947 18.7813 2.61292 18.7861 2.06638C18.7908 1.51983 19.0101 0.997013 19.3965 0.610532C19.783 0.224051 20.3058 0.00482814 20.8524 7.87992e-05C21.3989 -0.00467054 21.9255 0.205434 22.3186 0.58514L28.5721 6.83861C28.9629 7.22951 29.1824 7.75961 29.1824 8.31234C29.1824 8.86507 28.9629 9.39517 28.5721 9.78607Z" fill="#172ACE"/>
</svg>
