<svg width="161" height="193" viewBox="0 0 161 193" fill="none" xmlns="http://www.w3.org/2000/svg">
<path d="M143.033 102.574C143.033 102.574 144.717 83.7845 129.605 67.6735C129.605 67.6735 116.732 82.1886 102.373 84.0505L103.839 83.2335C131.824 26.8452 80.33 0 80.33 0C80.33 0 85.9348 32.7538 51.2163 51.5626C16.4978 70.3524 17.0721 102.574 17.0721 102.574H143.033Z" fill="white"/>
<path d="M160.145 102.574H143.093C143.093 135.955 114.89 163.028 80.0725 163.028C45.2549 163.028 17.0523 135.974 17.0523 102.574H0C0 127.235 12.1208 149.159 30.9555 163.218L13.9825 184.801L24.2218 192.21L41.69 170.001C53.0978 175.985 66.1692 179.386 80.0725 179.386C94.7877 179.386 108.552 175.567 120.416 168.918L138.735 192.21L148.975 184.801L130.952 161.888C148.777 147.81 160.145 126.456 160.145 102.574V102.574Z" fill="white"/>
</svg>
