<svg width="212" height="118" viewBox="0 0 212 118" fill="none" xmlns="http://www.w3.org/2000/svg">
<path d="M88.9831 72.8863C87.3976 77.1393 85.1171 80.7847 82.1416 83.8225C79.1878 86.8604 75.691 89.2038 71.6513 90.8746C67.6332 92.5454 63.1808 93.37 58.3157 93.37C48.4336 93.37 40.5061 90.1803 34.5116 83.8008C28.5172 77.4214 25.5199 69.089 25.5199 58.7604C25.5199 48.4318 28.5172 40.0994 34.5116 33.72C40.5061 27.3405 48.4553 24.1508 58.3157 24.1508C63.3329 24.1508 67.7418 25.1055 71.5427 26.9933C75.3435 28.9028 78.6883 31.3548 81.5769 34.3926L93.6961 12.6721C90.9812 9.95976 88.679 8.24555 81.9244 5.12092C75.148 2.03969 67.3074 0.477374 58.3375 0.477374C49.9756 0.477374 42.2436 1.95289 35.098 4.92563C27.9525 7.87667 21.806 11.956 16.6368 17.0987C11.4677 22.263 7.40621 28.4037 4.45241 35.5427C1.49862 42.6816 0 50.428 0 58.7604C0 67.0927 1.4769 74.8392 4.45241 81.9781C7.40621 89.117 11.4677 95.2578 16.6368 100.422C21.806 105.586 27.9525 109.644 35.098 112.595C42.2436 115.546 49.9756 117.043 58.3375 117.043C66.6993 117.043 74.2141 115.568 81.3597 112.595C88.5053 109.644 94.6518 105.543 99.8209 100.292C102.101 97.9918 104.121 95.4748 105.967 92.8058C107.748 95.3012 109.66 97.6664 111.853 99.8579C117.088 105.087 123.256 109.188 130.315 112.161C137.373 115.112 145.17 116.609 153.663 116.609C162.155 116.609 169.756 115.134 176.902 112.161C184.048 109.21 190.237 105.109 195.472 99.8579C200.706 94.6285 204.768 88.4661 207.656 81.4139C210.545 74.3618 211.978 66.6588 211.978 58.3047C211.978 49.9507 210.523 42.2476 207.656 35.1955C204.768 28.1434 200.706 22.0026 195.472 16.7515C190.237 11.5221 184.048 7.42099 176.902 4.44826C169.756 1.49722 162.003 0 153.663 0C145.322 0 137.373 1.47552 130.315 4.44826C123.256 7.3993 117.088 11.5004 111.853 16.7515C106.619 21.9809 102.536 28.1434 99.6689 35.1955C97.6056 40.2296 96.411 45.1986 95.6943 51.3177C94.9993 57.1764 93.3486 62.9049 90.9812 68.3296L89.0048 72.8863H88.9831ZM184.069 72.1052C182.484 76.2713 180.225 79.8733 177.336 82.9112C174.448 85.949 170.994 88.2925 166.976 89.9633C162.958 91.6341 158.506 92.4803 153.641 92.4803C148.776 92.4803 144.323 91.6558 140.305 89.9633C136.287 88.2925 132.812 85.949 129.945 82.9112C127.057 79.8733 124.82 76.2713 123.234 72.1052C121.649 67.939 120.845 63.3388 120.845 58.3264C120.845 53.314 121.649 48.7355 123.234 44.5477C124.82 40.3815 127.057 36.7795 129.945 33.7417C132.834 30.7038 136.287 28.3603 140.305 26.6895C144.323 25.0187 148.776 24.1725 153.641 24.1725C158.506 24.1725 162.937 25.0187 166.976 26.6895C170.994 28.3603 174.448 30.7038 177.336 33.7417C180.225 36.7795 182.462 40.3815 184.069 44.5477C185.655 48.7138 186.458 53.314 186.458 58.3264C186.458 63.3388 185.655 67.9173 184.069 72.1052Z" fill="white"/>
</svg>
