<svg width="20" height="24" viewBox="0 0 20 24" fill="none" xmlns="http://www.w3.org/2000/svg">
<path d="M7.15477 21.1357C7.15472 21.142 7.1543 21.1482 7.1543 21.1545C7.1543 22.7261 8.4283 24.0001 9.99986 24.0001C11.5714 24.0001 12.8454 22.7261 12.8454 21.1545C12.8454 21.1482 12.845 21.142 12.845 21.1357H7.15477Z" fill="#172ACE"/>
<path d="M19.0852 17.5787L16.5242 13.8167C16.5242 12.665 16.5242 9.85103 16.5242 9.12309C16.5242 5.95776 14.2699 3.31926 11.2793 2.72466V1.27933C11.2793 0.572812 10.7065 0 9.99993 0C9.29336 0 8.7206 0.572812 8.7206 1.27933V2.72471C5.72999 3.31936 3.47573 5.95786 3.47573 9.12314C3.47573 10.3623 3.47573 13.0985 3.47573 13.8167L0.914718 17.5788C0.644954 17.975 0.616425 18.488 0.840576 18.9117C1.06473 19.3355 1.50477 19.6005 1.98416 19.6005H18.0157C18.4951 19.6005 18.9351 19.3354 19.1593 18.9117C19.3835 18.4879 19.3549 17.975 19.0852 17.5787Z" fill="#172ACE"/>
</svg>
