<svg width="16" height="18" viewBox="0 0 16 18" fill="none" xmlns="http://www.w3.org/2000/svg">
<path d="M4.75008 3.3125H3.39592C2.1993 3.3125 1.22925 4.28255 1.22925 5.47917V14.6875C1.22925 15.8841 2.1993 16.8542 3.39592 16.8542H12.6043C13.8009 16.8542 14.7709 15.8841 14.7709 14.6875V5.47917C14.7709 4.28255 13.8009 3.3125 12.6043 3.3125H11.2501" stroke="#8D8D8D" stroke-width="1.5" stroke-linecap="round" stroke-linejoin="round"/>
<path d="M10.1667 4.93742H5.83333C5.23503 4.93742 4.75 4.45239 4.75 3.85408V2.22909C4.75 1.63078 5.23503 1.14575 5.83333 1.14575H10.1667C10.765 1.14575 11.25 1.63078 11.25 2.22909V3.85408C11.25 4.45239 10.765 4.93742 10.1667 4.93742Z" stroke="#8D8D8D" stroke-width="1.5" stroke-linecap="round" stroke-linejoin="round"/>
<path d="M5.5625 9.27075H10.4375" stroke="#8D8D8D" stroke-width="1.5" stroke-linecap="round" stroke-linejoin="round"/>
<path d="M5.5625 12.5208H10.4375" stroke="#8D8D8D" stroke-width="1.5" stroke-linecap="round" stroke-linejoin="round"/>
</svg>
